# xmcd
# 
# Track frame offsets:
#     150
#     20230
#     43370
#     68657
#     93517
#     114712
#     133845
#     152930
#     178232
#     198372
# 
# Disc length: 2923
# 
# Revision: 2
# Processed by: cddbd v1.5.2PL0 Copyright (c) Steve Scherf et al.
# Submitted via: BonkEnc v1.0.6
# 
DISCID=980b690a
DTITLE=松崎しげる - Memories of Love
DYEAR=0
DGENRE=Pop
TTITLE0=グッド・バイ・マイ・ラブ
TTITLE1=JEWELRY NIGHT
TTITLE2=TAKE A FLIGHT
TTITLE3=SENTIMENTAL
TTITLE4=BABY COME BACK
TTITLE5=あの輝きを忘れない
TTITLE6=愛の61日間
TTITLE7=愛のメモリー
TTITLE8=さよならロンリー・イエスタデイ
TTITLE9=さよならロンリー・イエスタデイ
EXTD=
EXTT0=
EXTT1=
EXTT2=
EXTT3=
EXTT4=
EXTT5=
EXTT6=
EXTT7=
EXTT8=
EXTT9=
PLAYORDER=
